<svg width="128" height="128" viewBox="0 0 128 128" fill="none"
  xmlns="http://www.w3.org/2000/svg">
  <g id="ai-skills-icon">
    <path d="M58 35C48.5 35 40 42.5 40 52C40 58 43.5 63 48 66C44 70 42 76 42 82C42 88 46 94 52 97V105H62V35H58Z" fill="white" fill-opacity="0.9"/>

    <path d="M66 35V105H76V97C82 94 86 88 86 82C86 76 84 70 80 66C84.5 63 88 58 88 52C88 42.5 79.5 35 70 35H66Z" fill="white"/>

    <rect x="52" y="108" width="24" height="4" rx="2" fill="white"/>
    <rect x="55" y="114" width="18" height="4" rx="2" fill="white" fill-opacity="0.7"/>

    <line x1="95" y1="52" x2="105" y2="52" stroke="white" stroke-width="3" stroke-linecap="round"/>
    <line x1="88" y1="35" x2="95" y2="28" stroke="white" stroke-width="3" stroke-linecap="round"/>
    <line x1="95" y1="72" x2="105" y2="78" stroke="white" stroke-width="3" stroke-linecap="round"/>
  </g>
</svg>