<svg xmlns="http://www.w3.org/2000/svg" viewBox="0 0 24 24" fill="none" stroke="currentColor" stroke-width="1.5" stroke-linecap="round" stroke-linejoin="round">
  <!-- Book outline - centered -->
  <path d="M3 19.5A2.5 2.5 0 0 1 5.5 17H19"/>
  <path d="M3 4.5A2.5 2.5 0 0 1 5.5 2H21v20H5.5A2.5 2.5 0 0 1 3 19.5v-15z"/>
  <!-- Puzzle piece in center -->
  <path d="M8 8h2.5c0-.83.67-1.5 1.5-1.5s1.5.67 1.5 1.5H16v2.5c.83 0 1.5.67 1.5 1.5s-.67 1.5-1.5 1.5V16h-2.5c0 .83-.67 1.5-1.5 1.5s-1.5-.67-1.5-1.5H8v-2.5c-.83 0-1.5-.67-1.5-1.5s.67-1.5 1.5-1.5V8z"/>
</svg>
